<?xml version="1.0" standalone="no"?>
<!DOCTYPE svg PUBLIC "-//W3C//DTD SVG 20010904//EN"
 "http://www.w3.org/TR/2001/REC-SVG-20010904/DTD/svg10.dtd">
<svg version="1.0" xmlns="http://www.w3.org/2000/svg"
 width="50.000000pt" height="50.000000pt" viewBox="0 0 50.000000 50.000000"
 preserveAspectRatio="xMidYMid meet">
<metadata>
Created by potrace 1.16, written by Peter Selinger 2001-2019
</metadata>
<g transform="translate(0.000000,50.000000) scale(0.100000,-0.100000)"
fill="#000000" stroke="none">
<path d="M70 465 c0 -14 5 -17 40 -19 9 -1 24 -28 39 -72 24 -68 24 -72 7 -89
-22 -22 -17 -46 11 -61 15 -7 19 -14 12 -21 -16 -16 1 -44 25 -41 24 3 34 37
14 49 -8 5 16 9 61 9 63 0 72 -2 61 -15 -6 -8 -10 -20 -8 -26 2 -7 -6 -22 -19
-35 -48 -48 -17 -124 51 -124 54 0 66 8 66 46 0 30 -3 34 -25 34 -19 0 -25 -5
-25 -21 0 -14 -5 -19 -17 -17 -12 2 -18 12 -18 28 0 21 5 25 30 25 53 0 76 29
31 41 -18 4 -22 11 -18 26 3 11 -1 24 -9 29 -10 6 -4 9 19 9 25 0 32 4 32 20
0 19 -7 20 -122 22 l-123 2 104 5 104 6 23 67 22 67 -26 35 c-31 41 -36 42
-67 18 -16 -13 -43 -19 -92 -20 -40 -1 -70 -7 -72 -13 -2 -7 -10 2 -17 20 -12
27 -18 31 -54 31 -29 0 -40 -4 -40 -15z"/>
<path d="M120 90 c0 -68 1 -70 25 -70 19 0 25 5 25 23 1 20 2 20 11 5 14 -25
34 -22 47 5 10 22 11 22 11 -5 1 -21 6 -28 21 -28 18 0 20 7 20 70 0 63 -2 70
-20 70 -12 0 -26 -13 -38 -36 l-18 -35 -19 35 c-14 25 -26 36 -42 36 -22 0
-23 -4 -23 -70z"/>
</g>
</svg>
